<svg t="1694516190733" class="icon" viewBox="0 0 1024 1024" version="1.1" xmlns="http://www.w3.org/2000/svg" p-id="1386" width="32" height="32"><path d="M826 667H388l-21-266.34h459V667z" fill="#A9C6FF" p-id="1387"></path><path d="M851.59 712H248.38L203.9 228.85h-76.8v-80h149.78l9.71 105.52h607.28z m-530.24-80h457.29l27.49-297.63H294z" fill="#333333" p-id="1388"></path><path d="M369 822m-56 0a56 56 0 1 0 112 0 56 56 0 1 0-112 0Z" fill="#333333" p-id="1389"></path><path d="M719 822m-56 0a56 56 0 1 0 112 0 56 56 0 1 0-112 0Z" fill="#333333" p-id="1390"></path></svg>